<svg id="Layer_1" data-name="Layer 1" xmlns="http://www.w3.org/2000/svg" viewBox="0 0 141.64 48"><defs><style>.cls-1,.cls-2{fill:#fff;}.cls-2{opacity:0.7;}</style></defs><title>Untitled-1</title><path class="cls-1" d="M89.68,23.77a1.27,1.27,0,0,0-.88.26,1.35,1.35,0,0,0-.3,1v.78h2.26v2.71H88.5V38.92H84.91V24.84q0-3.54,3.33-3.54h2.52v2.47Z" transform="translate(-29.56 -6)"/><path class="cls-1" d="M96,24.19a2,2,0,0,1-2.78,0,1.88,1.88,0,0,1-.59-1.39,1.9,1.9,0,0,1,.59-1.4,2,2,0,0,1,1.4-.57,1.91,1.91,0,0,1,1.38.57,2,2,0,0,1,.58,1.41A1.88,1.88,0,0,1,96,24.19ZM92.82,38.92V25.83h3.59V38.92Z" transform="translate(-29.56 -6)"/><path class="cls-1" d="M102.53,38.92h-3.6V25.83h3.28v.67a3.2,3.2,0,0,1,2.52-.94h.56q3.33,0,3.33,3.54v9.82H105V28.67a.51.51,0,0,0-.15-.37.44.44,0,0,0-.36-.16H103a.44.44,0,0,0-.36.16.51.51,0,0,0-.15.37Z" transform="translate(-29.56 -6)"/><path class="cls-1" d="M114.65,38.92h-3.59V21.57h3.59Z" transform="translate(-29.56 -6)"/><path class="cls-2" d="M128.41,31h-3.6V28.67a.55.55,0,0,0-.14-.37.47.47,0,0,0-.37-.16h-1.47a.45.45,0,0,0-.36.16.51.51,0,0,0-.15.37v7.4a.54.54,0,0,0,.15.38.45.45,0,0,0,.36.16h1.47a.47.47,0,0,0,.37-.16.57.57,0,0,0,.14-.38v-2.3h3.6v1.88q0,3.52-3.33,3.53h-3c-2.22,0-3.32-1.18-3.32-3.53V29.1c0-2.36,1.1-3.54,3.32-3.54h3q3.33,0,3.33,3.54Z" transform="translate(-29.56 -6)"/><path class="cls-2" d="M134.28,38.92h-3.59V21.57h3.59v4.64a3.43,3.43,0,0,1,2.2-.65H137q3.33,0,3.33,3.54v9.82h-3.6V28.67a.55.55,0,0,0-.14-.37.47.47,0,0,0-.37-.16h-1.47a.46.46,0,0,0-.51.48Z" transform="translate(-29.56 -6)"/><path class="cls-2" d="M149.46,25.83h3V38.92h-3V38a3.1,3.1,0,0,1-2.76,1.23h-.57c-2.22,0-3.32-1.18-3.32-3.53V29.1c0-2.36,1.1-3.54,3.32-3.54h.57a3.08,3.08,0,0,1,2.76,1.24Zm-.57,10.24v-7.4a.55.55,0,0,0-.14-.37.47.47,0,0,0-.37-.16h-1.47a.46.46,0,0,0-.36.16.51.51,0,0,0-.15.37v7.4a.54.54,0,0,0,.15.38.46.46,0,0,0,.36.16h1.47a.47.47,0,0,0,.37-.16A.57.57,0,0,0,148.89,36.07Z" transform="translate(-29.56 -6)"/><path class="cls-2" d="M158.59,24.19a2,2,0,0,1-2.78,0,1.88,1.88,0,0,1-.59-1.39,1.9,1.9,0,0,1,.59-1.4,2,2,0,0,1,1.4-.57,1.91,1.91,0,0,1,1.38.57,2,2,0,0,1,.58,1.41A1.88,1.88,0,0,1,158.59,24.19Zm-3.18,14.73V25.83H159V38.92Z" transform="translate(-29.56 -6)"/><path class="cls-2" d="M165.12,38.92h-3.6V25.83h3.28v.67a3.2,3.2,0,0,1,2.52-.94h.56q3.33,0,3.33,3.54v9.82h-3.6V28.67a.51.51,0,0,0-.15-.37.44.44,0,0,0-.36-.16h-1.47a.44.44,0,0,0-.36.16.51.51,0,0,0-.15.37Z" transform="translate(-29.56 -6)"/><path class="cls-1" d="M50.44,19.78v.11a8.16,8.16,0,0,1,4.85-.08L51.22,17A7.1,7.1,0,0,0,50.44,19.78Z" transform="translate(-29.56 -6)"/><path class="cls-1" d="M77.55,29.25a24,24,0,0,0-48,.75,22.21,22.21,0,0,0,.51,4.92C29.32,17.42,41.66,8.41,53.56,8.41A21.61,21.61,0,0,1,75.15,30c0,5.89-3.47,11-7.54,14.86a3.67,3.67,0,0,1-3.25.94h0c-6.18-1.1-8.1-4.57-8.72-6.85-1.74,0-4.21,1.5-6.59,5.59,0,0,1.61-5.49,6.35-7.15a8.92,8.92,0,0,1,7.14.8h0a7,7,0,0,0,5.6-3.38l.38-.72,1.15-2.16a2.69,2.69,0,0,0-1-3.57l-5.4-2.93a2.69,2.69,0,0,1-1.1-1.14l-.86-1.69a2.69,2.69,0,0,0-1-1.07A5.25,5.25,0,0,0,59.12,21a14.07,14.07,0,0,0-4.41-.76,18,18,0,0,0-4.36.39L45.6,18.24A7.94,7.94,0,0,0,45,21.4,7.49,7.49,0,0,0,45,22.57h0a7.71,7.71,0,0,0,.63,2.13l0,.06.14.27,0,.08c.05.09.09.18.14.26l.05.08q.22.38.48.72l.12.16.12.15.14.16.13.14.16.17.11.12.2.18.1.09a3.88,3.88,0,0,0,.31.26,8,8,0,0,1-4.17-4.36,28.24,28.24,0,0,0-3.66,2.81c-3.22,2.77-7.79,9.69-7.45,15.71a24,24,0,0,0,44.9-12.51ZM61.42,27.39l-2.66-.64A1.14,1.14,0,0,1,58,26l-.44-1.36Z" transform="translate(-29.56 -6)"/></svg>