<svg id="Layer_1" data-name="Layer 1" xmlns="http://www.w3.org/2000/svg" viewBox="0 0 35 35"><defs><style>.cls-1{fill:#949ba2;}</style></defs><title>Artboard 1 copy 2</title><path class="cls-1" d="M2.5,2.5v30h30V2.5ZM27.42,9.61l-1.61,1.54a.48.48,0,0,0-.17.45V22.94a.48.48,0,0,0,.17.45l1.58,1.54v.34H19.48v-.34l1.63-1.58c.16-.16.16-.21.16-.45V13.74L16.74,25.23h-.61L10.86,13.74v7.7a1.1,1.1,0,0,0,.3.89l2.11,2.56v.34h-6v-.34l2.12-2.56a1.08,1.08,0,0,0,.27-.89V12.53a.82.82,0,0,0-.25-.66L7.52,9.61V9.27h5.85l4.51,9.9,4-9.9h5.57Z"/></svg>