<svg id="Layer_1" data-name="Layer 1" xmlns="http://www.w3.org/2000/svg" viewBox="0 0 35 35"><defs><style>.cls-1{fill:#949ba2;}</style></defs><title>Artboard 1 copy 3</title><path class="cls-1" d="M17.5,2.87A15,15,0,0,0,12.76,32.1c.75.14,1-.32,1-.72V28.59c-4.17.91-5-1.77-5-1.77A4,4,0,0,0,7,24.62c-1.36-.93.11-.91.11-.91a3.15,3.15,0,0,1,2.29,1.55,3.21,3.21,0,0,0,4.37,1.25,3.16,3.16,0,0,1,.95-2c-3.33-.38-6.83-1.67-6.83-7.41a5.8,5.8,0,0,1,1.54-4,5.46,5.46,0,0,1,.15-4s1.26-.4,4.13,1.54a14.56,14.56,0,0,1,3.75-.51,14.76,14.76,0,0,1,3.76.51c2.86-1.94,4.12-1.54,4.12-1.54a5.46,5.46,0,0,1,.15,4,5.8,5.8,0,0,1,1.54,4c0,5.76-3.51,7-6.85,7.4a3.57,3.57,0,0,1,1,2.78v4.11c0,.4.24.87,1,.72A15,15,0,0,0,17.5,2.87Z"/></svg>