<svg id="Layer_1" data-name="Layer 1" xmlns="http://www.w3.org/2000/svg" viewBox="0 0 35 35"><defs><style>.cls-1{fill:#949ba2;}</style></defs><title>Artboard 1 copy</title><path class="cls-1" d="M17.5,2.51a15,15,0,1,0,15,15A15,15,0,0,0,17.5,2.51Zm7.65,11.07c0,.17,0,.34,0,.51A11.23,11.23,0,0,1,7.88,23.55a7.4,7.4,0,0,0,.94.05,7.9,7.9,0,0,0,4.9-1.69A3.94,3.94,0,0,1,10,19.17a3.64,3.64,0,0,0,.74.07,4,4,0,0,0,1-.13,4,4,0,0,1-3.16-3.87v-.05a4,4,0,0,0,1.78.49,4,4,0,0,1-1.22-5.27,11.19,11.19,0,0,0,8.14,4.12,3.74,3.74,0,0,1-.11-.89,4,4,0,0,1,6.83-2.71A7.89,7.89,0,0,0,26.59,10a4,4,0,0,1-1.74,2.18,8.2,8.2,0,0,0,2.27-.62h0A8.13,8.13,0,0,1,25.15,13.58Z"/></svg>