<svg id="Layer_1" data-name="Layer 1" xmlns="http://www.w3.org/2000/svg" viewBox="0 0 35 35"><defs><style>.cls-1{fill:#949ba2;}</style></defs><title>Artboard 1</title><path class="cls-1" d="M35,13.86c-.13-2-.16-4.52-1.45-6.57a4.59,4.59,0,0,0-2.73-1.61,128.91,128.91,0,0,0-13.27-.47,128.37,128.37,0,0,0-13.26.47A4.66,4.66,0,0,0,1.92,6.85C.49,8.17.39,10.44.18,12.34a75.58,75.58,0,0,0,0,10.32,13.67,13.67,0,0,0,.48,3.18A4.8,4.8,0,0,0,1.78,28a4.53,4.53,0,0,0,2.37,1.24c1.4.29,3.68.4,10.35.52h0c5.55.09,10.45,0,16.22-.44a4.59,4.59,0,0,0,2.44-1.25,3.94,3.94,0,0,0,1-1.53c.47-1.16.63-2.27.84-5.41C35,20.19,35,14.81,35,13.86ZM13.89,22.05V12.2h0v0c3.13,1.65,6.21,3.24,9.41,5h0C20.68,18.61,17.2,20.25,13.89,22.05Z"/></svg>